<svg width="32" height="32" viewBox="0 0 32 32" fill="none" xmlns="http://www.w3.org/2000/svg">
<path d="M15.9998 6.66797L26.6665 6.66797M5.33317 25.3346L9.33317 25.3346M5.33317 6.66797L10.6665 6.66797M14.6665 25.3346L26.6665 25.3346M22.6665 16.0013L26.6665 16.0013M5.33317 16.0013L17.3332 16.0013" stroke="black" stroke-width="1.33333" stroke-linecap="round"/>
<path d="M10.6667 6.66667C10.6667 8.13943 11.8606 9.33333 13.3333 9.33333C14.8061 9.33333 16 8.13943 16 6.66667C16 5.19391 14.8061 4 13.3333 4C11.8606 4 10.6667 5.19391 10.6667 6.66667Z" stroke="black" stroke-width="1.33333" stroke-linecap="round"/>
<path d="M17.3332 15.9987C17.3332 17.4715 18.5271 18.6654 19.9998 18.6654C21.4726 18.6654 22.6665 17.4715 22.6665 15.9987C22.6665 14.5259 21.4726 13.332 19.9998 13.332C18.5271 13.332 17.3332 14.5259 17.3332 15.9987Z" stroke="black" stroke-width="1.33333" stroke-linecap="round"/>
<path d="M9.33317 25.3346C9.33317 26.8074 10.5271 28.0013 11.9998 28.0013C13.4726 28.0013 14.6665 26.8074 14.6665 25.3346C14.6665 23.8619 13.4726 22.668 11.9998 22.668C10.5271 22.668 9.33317 23.8619 9.33317 25.3346Z" stroke="black" stroke-width="1.33333" stroke-linecap="round"/>
</svg>
