<svg width="32" height="32" viewBox="0 0 32 32" fill="none" xmlns="http://www.w3.org/2000/svg">
<path d="M16.0001 9.9981C14.8134 9.9981 13.6533 10.35 12.6666 11.0093C11.6799 11.6686 10.9109 12.6056 10.4568 13.702C10.0027 14.7984 9.88383 16.0048 10.1153 17.1686C10.3469 18.3325 10.9183 19.4016 11.7574 20.2407C12.5965 21.0799 13.6656 21.6513 14.8295 21.8828C15.9934 22.1143 17.1998 21.9955 18.2962 21.5414C19.3925 21.0873 20.3296 20.3182 20.9889 19.3315C21.6482 18.3448 22.0001 17.1848 22.0001 15.9981C21.9984 14.4073 21.3657 12.8822 20.2409 11.7573C19.116 10.6324 17.5908 9.99976 16.0001 9.9981ZM16.0001 19.9981C15.2089 19.9981 14.4356 19.7635 13.7778 19.324C13.12 18.8845 12.6073 18.2597 12.3045 17.5288C12.0018 16.7979 11.9226 15.9937 12.0769 15.2177C12.2313 14.4418 12.6122 13.7291 13.1716 13.1697C13.731 12.6103 14.4438 12.2293 15.2197 12.075C15.9956 11.9206 16.7999 11.9998 17.5308 12.3026C18.2617 12.6053 18.8864 13.118 19.3259 13.7758C19.7655 14.4336 20.0001 15.207 20.0001 15.9981C20.0001 17.059 19.5786 18.0764 18.8285 18.8265C18.0783 19.5767 17.0609 19.9981 16.0001 19.9981ZM27.0001 16.2681C27.0051 16.0881 27.0051 15.9081 27.0001 15.7281L28.8651 13.3981C28.9628 13.2758 29.0305 13.1322 29.0627 12.9789C29.0948 12.8256 29.0905 12.6669 29.0501 12.5156C28.7443 11.3664 28.287 10.2629 27.6901 9.23435C27.6119 9.09975 27.5034 8.98525 27.3732 8.89997C27.243 8.81468 27.0947 8.76097 26.9401 8.7431L23.9751 8.4131C23.8517 8.2831 23.7267 8.1581 23.6001 8.0381L23.2501 5.0656C23.2321 4.91087 23.1782 4.76248 23.0926 4.63227C23.0071 4.50205 22.8924 4.39362 22.7576 4.3156C21.7286 3.71979 20.6253 3.2629 19.4763 2.95685C19.3249 2.9166 19.1662 2.91248 19.0129 2.94483C18.8596 2.97719 18.716 3.0451 18.5938 3.1431L16.2701 4.9981C16.0901 4.9981 15.9101 4.9981 15.7301 4.9981L13.4001 3.13685C13.2777 3.03906 13.1341 2.97138 12.9808 2.93924C12.8276 2.90711 12.6689 2.91143 12.5176 2.95185C11.3685 3.25814 10.2651 3.71546 9.23631 4.31185C9.1017 4.39001 8.9872 4.49851 8.90192 4.62871C8.81664 4.75892 8.76292 4.90723 8.74506 5.06185L8.41506 8.03185C8.28506 8.15602 8.16006 8.28102 8.04006 8.40685L5.06756 8.7481C4.91282 8.76611 4.76443 8.82001 4.63422 8.90552C4.50401 8.99102 4.39557 9.10577 4.31756 9.2406C3.72174 10.2696 3.26485 11.3729 2.95881 12.5219C2.91855 12.6733 2.91444 12.832 2.94679 12.9853C2.97914 13.1386 3.04705 13.2821 3.14506 13.4044L5.00006 15.7281C5.00006 15.9081 5.00006 16.0881 5.00006 16.2681L3.13881 18.5981C3.04102 18.7204 2.97333 18.864 2.9412 19.0173C2.90906 19.1706 2.91338 19.3293 2.95381 19.4806C3.25954 20.6299 3.71689 21.7333 4.31381 22.7619C4.39196 22.8965 4.50046 23.011 4.63067 23.0962C4.76087 23.1815 4.90919 23.2352 5.06381 23.2531L8.02881 23.5831C8.15297 23.7131 8.27797 23.8381 8.40381 23.9581L8.75006 26.9306C8.76806 27.0853 8.82196 27.2337 8.90747 27.3639C8.99298 27.4942 9.10772 27.6026 9.24256 27.6806C10.2715 28.2764 11.3749 28.7333 12.5238 29.0394C12.6752 29.0796 12.834 29.0837 12.9872 29.0514C13.1405 29.019 13.2841 28.9511 13.4063 28.8531L15.7301 26.9981C15.9101 27.0031 16.0901 27.0031 16.2701 26.9981L18.6001 28.8631C18.7224 28.9609 18.866 29.0286 19.0193 29.0607C19.1726 29.0928 19.3312 29.0885 19.4826 29.0481C20.6318 28.7424 21.7352 28.285 22.7638 27.6881C22.8984 27.6099 23.0129 27.5014 23.0982 27.3712C23.1835 27.241 23.2372 27.0927 23.2551 26.9381L23.5851 23.9731C23.7151 23.8498 23.8401 23.7248 23.9601 23.5981L26.9326 23.2481C27.0873 23.2301 27.2357 23.1762 27.3659 23.0907C27.4961 23.0052 27.6045 22.8904 27.6826 22.7556C28.2784 21.7266 28.7353 20.6233 29.0413 19.4744C29.0816 19.3229 29.0857 19.1642 29.0533 19.0109C29.021 18.8576 28.9531 18.7141 28.8551 18.5919L27.0001 16.2681ZM24.9876 15.4556C25.0088 15.817 25.0088 16.1792 24.9876 16.5406C24.9727 16.788 25.0502 17.0321 25.2051 17.2256L26.9788 19.4419C26.7753 20.0887 26.5147 20.7162 26.2001 21.3169L23.3751 21.6369C23.129 21.6642 22.9019 21.7817 22.7376 21.9669C22.4969 22.2375 22.2407 22.4937 21.9701 22.7344C21.7849 22.8987 21.6674 23.1258 21.6401 23.3719L21.3263 26.1944C20.7257 26.5091 20.0982 26.7697 19.4513 26.9731L17.2338 25.1994C17.0564 25.0576 16.8359 24.9804 16.6088 24.9806H16.5488C16.1875 25.0019 15.8252 25.0019 15.4638 24.9806C15.2164 24.9657 14.9723 25.0432 14.7788 25.1981L12.5563 26.9731C11.9095 26.7696 11.282 26.509 10.6813 26.1944L10.3613 23.3731C10.334 23.1271 10.2164 22.8999 10.0313 22.7356C9.76069 22.495 9.50442 22.2387 9.26381 21.9681C9.09947 21.783 8.87233 21.6654 8.62631 21.6381L5.80381 21.3231C5.48905 20.7225 5.22843 20.095 5.02506 19.4481L6.79881 17.2306C6.95369 17.0371 7.0312 16.793 7.01631 16.5456C6.99506 16.1842 6.99506 15.822 7.01631 15.4606C7.0312 15.2132 6.95369 14.9691 6.79881 14.7756L5.02506 12.5544C5.22859 11.9075 5.4892 11.2801 5.80381 10.6794L8.62506 10.3594C8.87108 10.332 9.09822 10.2145 9.26256 10.0294C9.50317 9.75874 9.75944 9.50247 10.0301 9.26185C10.2159 9.09741 10.334 8.86975 10.3613 8.6231L10.6751 5.80185C11.2757 5.48709 11.9032 5.22648 12.5501 5.0231L14.7676 6.79685C14.961 6.95174 15.2052 7.02925 15.4526 7.01435C15.8139 6.9931 16.1762 6.9931 16.5376 7.01435C16.785 7.02925 17.0291 6.95174 17.2226 6.79685L19.4438 5.0231C20.0906 5.22664 20.7181 5.48724 21.3188 5.80185L21.6388 8.6231C21.6661 8.86912 21.7837 9.09627 21.9688 9.2606C22.2394 9.50122 22.4957 9.75749 22.7363 10.0281C22.9006 10.2132 23.1278 10.3308 23.3738 10.3581L26.1963 10.6719C26.5111 11.2725 26.7717 11.9 26.9751 12.5469L25.2013 14.7644C25.0449 14.9595 24.9673 15.2061 24.9838 15.4556H24.9876Z" fill="white"/>
</svg>
