<svg width="25" height="24" viewBox="0 0 25 24" fill="none" xmlns="http://www.w3.org/2000/svg">
<path d="M10.5 23C10.5 23.2652 10.3946 23.5196 10.2071 23.7071C10.0196 23.8946 9.76522 24 9.5 24H1.5C1.23478 24 0.98043 23.8946 0.792893 23.7071C0.605357 23.5196 0.5 23.2652 0.5 23V1C0.5 0.734784 0.605357 0.48043 0.792893 0.292893C0.98043 0.105357 1.23478 0 1.5 0H9.5C9.76522 0 10.0196 0.105357 10.2071 0.292893C10.3946 0.48043 10.5 0.734784 10.5 1C10.5 1.26522 10.3946 1.51957 10.2071 1.70711C10.0196 1.89464 9.76522 2 9.5 2H2.5V22H9.5C9.76522 22 10.0196 22.1054 10.2071 22.2929C10.3946 22.4804 10.5 22.7348 10.5 23ZM24.2075 11.2925L19.2075 6.2925C19.0199 6.10486 18.7654 5.99944 18.5 5.99944C18.2346 5.99944 17.9801 6.10486 17.7925 6.2925C17.6049 6.48014 17.4994 6.73464 17.4994 7C17.4994 7.26536 17.6049 7.51986 17.7925 7.7075L21.0863 11H9.5C9.23478 11 8.98043 11.1054 8.79289 11.2929C8.60536 11.4804 8.5 11.7348 8.5 12C8.5 12.2652 8.60536 12.5196 8.79289 12.7071C8.98043 12.8946 9.23478 13 9.5 13H21.0863L17.7925 16.2925C17.6049 16.4801 17.4994 16.7346 17.4994 17C17.4994 17.2654 17.6049 17.5199 17.7925 17.7075C17.9801 17.8951 18.2346 18.0006 18.5 18.0006C18.7654 18.0006 19.0199 17.8951 19.2075 17.7075L24.2075 12.7075C24.3005 12.6146 24.3742 12.5043 24.4246 12.3829C24.4749 12.2615 24.5008 12.1314 24.5008 12C24.5008 11.8686 24.4749 11.7385 24.4246 11.6171C24.3742 11.4957 24.3005 11.3854 24.2075 11.2925Z" fill="black"/>
</svg>
