<svg width="32" height="21" viewBox="0 0 32 21" fill="none" xmlns="http://www.w3.org/2000/svg">
<path d="M14.6563 13.7391C15.9966 12.8469 17.0141 11.547 17.5584 10.0317C18.1028 8.51641 18.145 6.86617 17.6789 5.32501C17.2129 3.78386 16.2632 2.4336 14.9703 1.47392C13.6775 0.514244 12.1102 -0.00390625 10.5001 -0.00390625C8.88997 -0.00390625 7.32261 0.514244 6.02978 1.47392C4.73694 2.4336 3.78726 3.78386 3.32118 5.32501C2.85509 6.86617 2.89734 8.51641 3.44168 10.0317C3.98603 11.547 5.00356 12.8469 6.34381 13.7391C3.91943 14.6327 1.84894 16.2862 0.441312 18.4529C0.367332 18.5628 0.315945 18.6864 0.290139 18.8164C0.264332 18.9464 0.264621 19.0802 0.290989 19.2101C0.317356 19.34 0.369276 19.4633 0.44373 19.5729C0.518185 19.6826 0.613688 19.7763 0.72469 19.8487C0.835692 19.9211 0.959977 19.9707 1.09032 19.9947C1.22067 20.0186 1.35447 20.0164 1.48396 19.9882C1.61344 19.96 1.73603 19.9063 1.84458 19.8303C1.95314 19.7542 2.04551 19.6574 2.11631 19.5454C3.0243 18.1489 4.26676 17.0013 5.73086 16.2069C7.19496 15.4124 8.83432 14.9963 10.5001 14.9963C12.1658 14.9963 13.8052 15.4124 15.2693 16.2069C16.7334 17.0013 17.9758 18.1489 18.8838 19.5454C19.0305 19.7634 19.257 19.9149 19.5145 19.9672C19.772 20.0194 20.0397 19.9683 20.2598 19.8247C20.4799 19.6812 20.6346 19.4568 20.6906 19.2001C20.7465 18.9434 20.6992 18.675 20.5588 18.4529C19.1512 16.2862 17.0807 14.6327 14.6563 13.7391ZM5.00006 7.49914C5.00006 6.41134 5.32263 5.34797 5.92698 4.4435C6.53133 3.53903 7.39031 2.83408 8.3953 2.4178C9.4003 2.00152 10.5062 1.8926 11.5731 2.10482C12.64 2.31704 13.62 2.84086 14.3891 3.61005C15.1583 4.37924 15.6822 5.35924 15.8944 6.42614C16.1066 7.49304 15.9977 8.5989 15.5814 9.6039C15.1651 10.6089 14.4602 11.4679 13.5557 12.0722C12.6512 12.6766 11.5879 12.9991 10.5001 12.9991C9.04188 12.9975 7.64389 12.4175 6.6128 11.3864C5.58171 10.3553 5.00172 8.95732 5.00006 7.49914ZM31.2676 19.8366C31.0454 19.9815 30.7749 20.0322 30.5154 19.9776C30.2559 19.9229 30.0287 19.7675 29.8838 19.5454C28.9769 18.148 27.7346 17 26.2702 16.2059C24.8058 15.4118 23.1659 14.9969 21.5001 14.9991C21.2348 14.9991 20.9805 14.8938 20.793 14.7062C20.6054 14.5187 20.5001 14.2644 20.5001 13.9991C20.5001 13.7339 20.6054 13.4796 20.793 13.292C20.9805 13.1045 21.2348 12.9991 21.5001 12.9991C22.31 12.9984 23.1098 12.8187 23.8423 12.473C24.5748 12.1273 25.2219 11.6241 25.7373 10.9994C26.2528 10.3746 26.6239 9.64368 26.8242 8.85886C27.0244 8.07404 27.0488 7.25468 26.8957 6.45932C26.7426 5.66397 26.4157 4.91225 25.9383 4.25788C25.461 3.60351 24.845 3.06265 24.1344 2.67393C23.4239 2.28521 22.6362 2.05823 21.8277 2.00922C21.0192 1.9602 20.2099 2.09036 19.4576 2.39039C19.3349 2.44341 19.2028 2.47132 19.0692 2.47245C18.9356 2.47358 18.8031 2.44791 18.6795 2.39696C18.556 2.34601 18.4439 2.27082 18.3499 2.17582C18.2559 2.08083 18.1819 1.96795 18.1323 1.84387C18.0827 1.71979 18.0584 1.58702 18.0609 1.45341C18.0635 1.3198 18.0928 1.18805 18.1471 1.06595C18.2015 0.943855 18.2797 0.833886 18.3772 0.742543C18.4748 0.6512 18.5897 0.580335 18.7151 0.534137C20.4369 -0.152549 22.352 -0.17726 24.091 0.46477C25.83 1.1068 27.2696 2.37008 28.1321 4.01091C28.9946 5.65173 29.2189 7.55384 28.7617 9.35028C28.3045 11.1467 27.1982 12.7102 25.6563 13.7391C28.0807 14.6327 30.1512 16.2862 31.5588 18.4529C31.7037 18.675 31.7543 18.9456 31.6997 19.2051C31.6451 19.4646 31.4897 19.6917 31.2676 19.8366Z" fill="black"/>
</svg>
