<svg width="13" height="22" viewBox="0 0 13 22" fill="none" xmlns="http://www.w3.org/2000/svg">
<path d="M11.7069 21.3716C11.8942 21.1841 11.9994 20.9299 11.9994 20.6649C11.9994 20.3999 11.8942 20.1458 11.7069 19.9583L2.74693 10.9983L11.7069 2.03828C11.8052 1.94673 11.884 1.83633 11.9386 1.71366C11.9933 1.591 12.0227 1.45858 12.025 1.32431C12.0274 1.19004 12.0027 1.05666 11.9524 0.932147C11.9021 0.80763 11.8273 0.694519 11.7323 0.599559C11.6374 0.5046 11.5242 0.42974 11.3997 0.379446C11.2752 0.329151 11.1418 0.304452 11.0076 0.306821C10.8733 0.30919 10.7409 0.338579 10.6182 0.393236C10.4955 0.447891 10.3851 0.526693 10.2936 0.624942L0.626925 10.2916C0.439658 10.4791 0.334472 10.7333 0.334472 10.9983C0.334472 11.2633 0.439658 11.5174 0.626925 11.7049L10.2936 21.3716C10.4811 21.5589 10.7353 21.6641 11.0003 21.6641C11.2653 21.6641 11.5194 21.5589 11.7069 21.3716Z" fill="black"/>
</svg>
