<svg width="28" height="26" viewBox="0 0 28 26" fill="none" xmlns="http://www.w3.org/2000/svg">
<path d="M26.8648 23.4995C24.9611 20.2082 22.0273 17.8482 18.6036 16.7295C20.2971 15.7213 21.6129 14.1851 22.3489 12.3567C23.0848 10.5284 23.2002 8.509 22.6774 6.60869C22.1546 4.70838 21.0224 3.03224 19.4548 1.83765C17.8872 0.643064 15.9708 -0.00390625 13.9999 -0.00390625C12.0289 -0.00390625 10.1125 0.643064 8.54488 1.83765C6.97725 3.03224 5.84509 4.70838 5.32228 6.60869C4.79946 8.509 4.91489 10.5284 5.65083 12.3567C6.38678 14.1851 7.70256 15.7213 9.3961 16.7295C5.97235 17.847 3.0386 20.207 1.13485 23.4995C1.06504 23.6133 1.01873 23.74 0.998661 23.872C0.978593 24.004 0.985171 24.1387 1.01801 24.2682C1.05084 24.3976 1.10927 24.5192 1.18984 24.6257C1.27041 24.7322 1.3715 24.8214 1.48713 24.8882C1.60277 24.955 1.73061 24.998 1.86311 25.0146C1.99561 25.0311 2.1301 25.021 2.25863 24.9848C2.38716 24.9486 2.50713 24.8869 2.61146 24.8036C2.71579 24.7202 2.80238 24.6168 2.8661 24.4995C5.2211 20.4295 9.3836 17.9995 13.9999 17.9995C18.6161 17.9995 22.7786 20.4295 25.1336 24.4995C25.1973 24.6168 25.2839 24.7202 25.3882 24.8036C25.4926 24.8869 25.6125 24.9486 25.7411 24.9848C25.8696 25.021 26.0041 25.0311 26.1366 25.0146C26.2691 24.998 26.3969 24.955 26.5126 24.8882C26.6282 24.8214 26.7293 24.7322 26.8099 24.6257C26.8904 24.5192 26.9489 24.3976 26.9817 24.2682C27.0145 24.1387 27.0211 24.004 27.001 23.872C26.981 23.74 26.9347 23.6133 26.8648 23.4995ZM6.99985 8.99949C6.99985 7.61503 7.41039 6.26165 8.17956 5.1105C8.94873 3.95936 10.042 3.06215 11.3211 2.53234C12.6001 2.00252 14.0076 1.8639 15.3655 2.134C16.7234 2.40409 17.9706 3.07078 18.9496 4.04975C19.9286 5.02871 20.5953 6.276 20.8653 7.63386C21.1354 8.99173 20.9968 10.3992 20.467 11.6783C19.9372 12.9574 19.04 14.0506 17.8888 14.8198C16.7377 15.589 15.3843 15.9995 13.9999 15.9995C12.1439 15.9975 10.3646 15.2594 9.0523 13.9471C7.73997 12.6347 7.00184 10.8554 6.99985 8.99949Z" fill="white"/>
</svg>
