<svg width="65" height="62" viewBox="0 0 65 62" fill="none" xmlns="http://www.w3.org/2000/svg">
<g clip-path="url(#clip0_1570_3924)">
<path fill-rule="evenodd" clip-rule="evenodd" d="M32.3342 62C30.1597 62 28.3965 60.2602 28.3965 58.1113V34.8872C28.3965 32.7398 30.1597 31 32.3342 31C34.5101 31 36.2733 32.7398 36.2733 34.8872V58.1113C36.2733 60.2602 34.5101 62 32.3342 62Z" fill="#F52A3B"/>
<path fill-rule="evenodd" clip-rule="evenodd" d="M40.5193 24.4026C39.397 24.4026 38.2841 23.9296 37.51 23.0189C36.1251 21.3852 36.3536 18.9657 38.0136 17.6065L58.0822 1.21805C59.7422 -0.139641 62.2106 0.0800306 63.5939 1.71384C64.9789 3.3446 64.752 5.76557 63.0903 7.12174L43.0234 23.5147C42.2913 24.1112 41.4038 24.4026 40.5193 24.4026Z" fill="#F52A3B"/>
<mask id="mask0_1570_3924" style="mask-type:alpha" maskUnits="userSpaceOnUse" x="0" y="0" width="29" height="25">
<path fill-rule="evenodd" clip-rule="evenodd" d="M0.5 24.8394V0.304688H28.3301V24.8394H0.5Z" fill="white"/>
</mask>
<g mask="url(#mask0_1570_3924)">
<path fill-rule="evenodd" clip-rule="evenodd" d="M24.424 24.8394C23.5438 24.8394 22.6588 24.5425 21.9304 23.9345L1.90775 7.22709C0.250948 5.84958 0.0231189 3.3775 1.40249 1.71547C2.78031 0.0549793 5.24459 -0.17357 6.89984 1.21017L26.9225 17.9129C28.5792 19.2952 28.807 21.7641 27.4277 23.4293C26.6559 24.3575 25.543 24.8394 24.424 24.8394Z" fill="#F52A3B"/>
</g>
</g>
<defs>
<clipPath id="clip0_1570_3924">
<rect width="64" height="62" fill="white" transform="translate(0.5)"/>
</clipPath>
</defs>
</svg>
