<svg width="126" height="30" viewBox="0 0 126 30" fill="none" xmlns="http://www.w3.org/2000/svg">
<path fill-rule="evenodd" clip-rule="evenodd" d="M95.586 14.9612C95.586 23.2093 102.408 29.9182 110.791 29.9182C119.178 29.9182 126 23.2119 126 14.9612C126 6.7105 119.178 0 110.789 0C108.369 0.00158912 105.958 0.576144 103.822 1.66028C102.928 2.116 102.581 3.19078 103.049 4.06126C103.515 4.93139 104.619 5.27252 105.516 4.81556C107.155 3.98163 108.93 3.55928 110.791 3.55769C117.159 3.55769 122.343 8.6766 122.343 14.9612C122.343 21.2458 117.16 26.3605 110.791 26.3605C104.422 26.3605 99.2437 21.2458 99.2437 14.9612C99.2437 12.8394 99.836 10.7725 100.958 8.97941C101.483 8.14053 101.208 7.04598 100.347 6.53464C99.4811 6.02453 98.3574 6.29027 97.8326 7.13073C96.3623 9.48016 95.586 12.1878 95.586 14.9612ZM55.7881 28.5821C56.1448 28.9298 56.6131 29.1032 57.081 29.1032C57.549 29.1032 58.0162 28.9298 58.3736 28.5821C59.0881 27.8896 59.0881 26.7617 58.3758 26.0665L52.866 20.7041C52.1519 20.0088 50.9948 20.0088 50.2807 20.7041C49.5659 21.3965 49.5659 22.5244 50.2781 23.2188L55.7881 28.5821ZM49.6662 0.861168H36.6364C35.8767 0.861168 35.2265 1.31001 34.9499 1.95007C34.8506 2.17007 34.7934 2.41162 34.7934 2.66641V27.2738C34.7934 28.2571 35.6112 29.053 36.6222 29.053C37.6333 29.053 38.4508 28.2571 38.4508 27.2738V4.41974H49.6662C52.7322 4.41974 55.2277 6.84579 55.2277 9.83051C55.2277 12.8152 52.7322 15.242 49.6662 15.242H43.2621C42.2511 15.242 41.4331 16.0378 41.4331 17.0211C41.4331 18.0044 42.2511 18.8002 43.2621 18.8002H49.6662C54.7485 18.8002 58.8852 14.776 58.8852 9.83051C58.8852 4.885 54.7485 0.861168 49.6662 0.861168ZM80.7196 14.8027H88.1275C89.1364 14.8027 89.9563 15.5983 89.9563 16.582V27.3491C89.9563 28.3319 89.1387 29.1286 88.1273 29.1286C87.1159 29.1286 86.298 28.3319 86.298 27.3491V18.3606H80.7196C79.7104 18.3606 78.8906 17.5656 78.8906 16.582C78.8906 15.5983 79.7104 14.8027 80.7196 14.8027ZM79.0806 30C70.6936 30 63.872 23.2893 63.872 15.0384C63.872 6.78755 70.6934 0.0811063 79.0806 0.0811063C82.3826 0.0811063 85.5244 1.10591 88.1675 3.0464C88.9725 3.63773 89.1313 4.75453 88.5253 5.53779C87.9172 6.32158 86.7707 6.47908 85.9632 5.88581C83.9597 4.41623 81.5806 3.63897 79.0808 3.63897C72.7121 3.63897 67.5289 8.75329 67.5289 15.0384C67.5289 21.3236 72.7121 26.4425 79.0808 26.4425C79.8862 26.4425 80.6988 26.3588 81.4915 26.1937C82.4849 25.9797 83.4524 26.5996 83.6633 27.5611C83.8743 28.5219 83.2457 29.4664 82.2559 29.6723C81.2132 29.8902 80.1432 30 79.0808 30H79.0806ZM13.0107 27.2722C13.0107 28.2553 13.8294 29.0513 14.8393 29.0513C15.8495 29.0513 16.6687 28.2553 16.6687 27.2722V16.647C16.6687 15.6647 15.8493 14.8688 14.8393 14.8688C13.8294 14.8688 13.0107 15.6647 13.0107 16.647V27.2722ZM18.6599 12.0335C18.1359 12.0335 17.6155 11.8148 17.2542 11.3933C16.6071 10.6367 16.7139 9.51655 17.4897 8.88743L26.8637 1.29974C27.6394 0.670799 28.7918 0.772502 29.438 1.52945C30.0849 2.28446 29.9789 3.40497 29.2026 4.03302L19.8292 11.6225C19.4873 11.8983 19.0729 12.0335 18.6599 12.0335ZM10.0391 11.6222C10.3809 11.898 10.795 12.0332 11.2077 12.0332C11.732 12.0332 12.2531 11.8144 12.615 11.393C13.2607 10.6364 13.154 9.51446 12.3783 8.88711L2.99847 1.29942C2.22212 0.67048 1.06804 0.774126 0.422568 1.52913C-0.223087 2.28397 -0.1169 3.40641 0.659266 4.0327L10.0391 11.6222Z" fill="white"/>
</svg>
