<svg width="98" height="24" viewBox="0 0 98 24" fill="none" xmlns="http://www.w3.org/2000/svg">
<path fill-rule="evenodd" clip-rule="evenodd" d="M74.3446 11.6365C74.3446 18.0517 79.6505 23.2697 86.1707 23.2697C92.6936 23.2697 98 18.0537 98 11.6365C98 5.21928 92.6936 0 86.1696 0C84.2868 0.00123598 82.4118 0.448112 80.7507 1.29133C80.0549 1.64578 79.785 2.48171 80.1492 3.15876C80.5119 3.83553 81.3703 4.10085 82.0679 3.74544C83.343 3.09682 84.7233 2.76833 86.1707 2.76709C91.1238 2.76709 95.1555 6.74846 95.1555 11.6365C95.1555 16.5245 91.1241 20.5026 86.1707 20.5026C81.2173 20.5026 77.1896 16.5245 77.1896 11.6365C77.1896 9.98619 77.6502 8.37859 78.523 6.98399C78.9314 6.33153 78.7171 5.48021 78.0476 5.0825C77.3742 4.68575 76.5002 4.89243 76.092 5.54613C74.9485 7.37346 74.3446 9.47943 74.3446 11.6365ZM43.3907 22.2305C43.6682 22.5009 44.0324 22.6358 44.3964 22.6358C44.7603 22.6358 45.1237 22.5009 45.4017 22.2305C45.9574 21.6919 45.9574 20.8146 45.4034 20.274L41.118 16.1032C40.5626 15.5624 39.6626 15.5624 39.1072 16.1032C38.5512 16.6417 38.5512 17.519 39.1052 18.0591L43.3907 22.2305ZM38.6293 0.669797H28.495C27.9041 0.669797 27.3984 1.01889 27.1833 1.51672C27.106 1.68783 27.0616 1.8757 27.0616 2.07387V21.2129C27.0616 21.9777 27.6976 22.5968 28.484 22.5968C29.2703 22.5968 29.9062 21.9777 29.9062 21.2129V3.43757H38.6293C41.0139 3.43757 42.9549 5.32451 42.9549 7.64596C42.9549 9.9674 41.0139 11.8549 38.6293 11.8549H33.6483C32.8619 11.8549 32.2258 12.4738 32.2258 13.2386C32.2258 14.0034 32.8619 14.6224 33.6483 14.6224H38.6293C42.5822 14.6224 45.7996 11.4925 45.7996 7.64596C45.7996 3.79944 42.5822 0.669797 38.6293 0.669797ZM62.7819 11.5132H68.5436C69.3283 11.5132 69.966 12.132 69.966 12.8971V21.2716C69.966 22.0359 69.3301 22.6556 68.5435 22.6556C67.7568 22.6556 67.1207 22.0359 67.1207 21.2716V14.2804H62.7819C61.997 14.2804 61.3594 13.6622 61.3594 12.8971C61.3594 12.132 61.997 11.5132 62.7819 11.5132ZM61.5071 23.3333C54.9839 23.3333 49.6782 18.1139 49.6782 11.6966C49.6782 5.2792 54.9838 0.0630827 61.5071 0.0630827C64.0753 0.0630827 66.519 0.860154 68.5747 2.36943C69.2008 2.82935 69.3244 3.69797 68.853 4.30717C68.38 4.91678 67.4883 5.03928 66.8602 4.57785C65.302 3.43484 63.4516 2.83031 61.5073 2.83031C56.5538 2.83031 52.5224 6.80811 52.5224 11.6966C52.5224 16.585 56.5538 20.5664 61.5073 20.5664C62.1337 20.5664 62.7657 20.5013 63.3823 20.3729C64.1549 20.2064 64.9074 20.6886 65.0715 21.4364C65.2355 22.1837 64.7466 22.9183 63.9768 23.0784C63.1658 23.2479 62.3336 23.3333 61.5073 23.3333H61.5071ZM10.1195 21.2117C10.1195 21.9764 10.7562 22.5955 11.5417 22.5955C12.3274 22.5955 12.9645 21.9764 12.9645 21.2117V12.9477C12.9645 12.1837 12.3272 11.5646 11.5417 11.5646C10.7562 11.5646 10.1195 12.1837 10.1195 12.9477V21.2117ZM14.5133 9.35942C14.1057 9.35942 13.7009 9.18926 13.42 8.86145C12.9167 8.27299 12.9997 7.40176 13.6031 6.91245L20.894 1.01091C21.4973 0.521732 22.3936 0.600835 22.8962 1.18957C23.3994 1.7768 23.3169 2.64831 22.7131 3.1368L15.4227 9.03971C15.1568 9.25422 14.8344 9.35942 14.5133 9.35942ZM7.80822 9.03946C8.07406 9.25397 8.39609 9.35917 8.71713 9.35917C9.12486 9.35917 9.53019 9.18902 9.8117 8.86121C10.3139 8.27274 10.2309 7.40014 9.6276 6.9122L2.33214 1.01066C1.72832 0.521484 0.830699 0.602098 0.328664 1.18933C-0.173512 1.77642 -0.0909219 2.64943 0.512762 3.13655L7.80822 9.03946Z" fill="#F52A3B"/>
</svg>
